<?xml version="1.0" encoding="utf-8"?>
<!-- Generator: Adobe Illustrator 19.0.0, SVG Export Plug-In . SVG Version: 6.00 Build 0)  -->
<svg version="1.1" id="Layer_1" xmlns="http://www.w3.org/2000/svg" xmlns:xlink="http://www.w3.org/1999/xlink" x="0px" y="0px"
	 viewBox="0 0 442.5 282.8" style="enable-background:new 0 0 442.5 282.8;" xml:space="preserve">
<style type="text/css">
	.st0{fill:none;stroke:#000000;stroke-width:1.5;stroke-miterlimit:10;}
</style>
<path class="st0" d="M221.2,4.4V3.2v-1V1.4V0.9V0.6 M272.4,124.3V98.4 M248.4,151.9l5.2-5.9l9.5-10.8l9.3-10.9 M272.4,124.3
	l23.5-6.9 M203.3,142.9l12.2-3.6l19.6-5.7 M108.2,152.4v-25.9 M100.5,154.7l7.7-2.3 M108.2,152.4l89.6,19 M221.2,4.4l-204.5,118
	 M425.6,122.4L221.2,4.4 M70.8,137.6l10.5-3.2l10.5-3l16.4-4.9 M108.2,126.5l108.9,23.1 M217.1,149.6l-12,13.4l-11.7,13.4l-9.3,10.6
	l-9.5,10.5 M174.6,197.5L70.8,137.6 M229.4,147.7l12-13.8l12.2-13.8l9.5-10.9l9.3-10.8 M272.4,98.4l30.2-8.9l23.8-6.9 M326.4,82.6
	l-63.3,72.2 M263.1,154.8l-9.4-1.8l-9.4-2l-14.7-3.2 M229.6,147.8l-0.2-0.1 M223.3,147.1l-39.9-8.4L152,132 M152,132l63.5-18.6
	l49.9-14.5 M265.4,98.9l-42.1,48.2 M0.8,131.7v23.1 M0.8,154.8l220.5,127.3 M441.7,131.7v23.1 M221.2,259v23.1 M221.2,282.1
	l220.5-127.3 M441.7,131.7l-0.2-1.3l-0.5-1.3l-0.8-1.3l-1.1-1.1l-1.4-1.1l-1.6-0.9l-1.8-0.8l-2-0.6l-2.2-0.5l-2.2-0.3l-2.3-0.1
	 M221.2,240.5l204.4-118.1 M441.7,131.7L221.2,259 M16.8,122.4l-2.3,0.1l-2.2,0.3l-2.1,0.5l-2,0.6l-1.9,0.8l-1.6,0.9l-1.4,1.1
	l-1.1,1.1l-0.8,1.3l-0.4,1.3l-0.2,1.3 M221.2,259L0.8,131.7 M221.2,259v-1.4V256v-1.7v-1.8v-1.8v-1.9v-1.9v-1.8v-1.7v-1.5v-1.4
	 M16.8,122.4l204.5,118.1 M221.2,0.6L5.4,125.1 M437,125.1L221.2,0.6"/>
</svg>
