<?xml version="1.0" encoding="utf-8"?>
<!-- Generator: Adobe Illustrator 22.1.0, SVG Export Plug-In . SVG Version: 6.00 Build 0)  -->
<svg version="1.1" xmlns="http://www.w3.org/2000/svg" xmlns:xlink="http://www.w3.org/1999/xlink" x="0px" y="0px"
	 viewBox="0 0 422 417" style="enable-background:new 0 0 422 417;" xml:space="preserve">
<style type="text/css">
	.st0{display:none;}
	.st1{display:inline;}
	.st2{fill:#FFFFFF;stroke:#231F20;stroke-width:4;stroke-miterlimit:10;}
	.st3{fill:none;stroke:#231F20;stroke-width:4;stroke-miterlimit:10;}
	.st4{fill:none;stroke:#1A1818;stroke-linecap:round;stroke-linejoin:round;stroke-miterlimit:10;}
</style>
<g id="Layer_1" class="st0">
	<g class="st1">
		<path class="st2" d="M442,369.8c0,19.7-11.6,44.2-31.3,44.2H-6.6c-19.7,0-43.4-24.5-43.4-44.2V18.5C-41,2.7-26.2,4-6.6,4h417.3
			C430.4,4,433,2.7,442,18.5V369.8z"/>
		<rect x="272" y="67" class="st3" width="121" height="170"/>
	</g>
</g>
<g id="Layer_2">
	<line class="st4" x1="362.6" y1="415" x2="57.8" y2="415"/>
	<path class="st4" d="M4,361.3c0,29.7,24.1,53.8,53.8,53.8"/>
	<line class="st4" x1="4.1" y1="361.3" x2="4.1" y2="56.5"/>
	<path class="st4" d="M57.9,2.7C28.1,2.7,4,26.8,4,56.5"/>
	<line class="st4" x1="57.9" y1="2.7" x2="362.9" y2="2.7"/>
	<path class="st4" d="M416.8,56.5c0-29.7-24.1-53.8-53.8-53.8"/>
	<line class="st4" x1="416.7" y1="56.5" x2="416.7" y2="361.3"/>
	<path class="st4" d="M362.9,415.1c29.7,0,53.9-24.1,53.9-53.8"/>
	<line class="st4" x1="29" y1="361.3" x2="29" y2="56.5"/>
	<line class="st4" x1="57.9" y1="27.7" x2="362.9" y2="27.7"/>
	<line class="st4" x1="362.9" y1="390.1" x2="57.9" y2="390.1"/>
	<line class="st4" x1="391.8" y1="56.5" x2="391.8" y2="361.3"/>
	<path class="st4" d="M29,361.3c0,15.9,12.9,28.8,28.8,28.8"/>
	<path class="st4" d="M362.9,390.1c15.9,0,28.8-12.9,28.8-28.8"/>
	<path class="st4" d="M391.8,56.5c0-15.9-12.9-28.8-28.8-28.8"/>
	<path class="st4" d="M57.9,27.7C41.9,27.7,29,40.6,29,56.5"/>
	<polyline class="st4" points="253,297.8 233.1,236.8 233.1,236.7 253,297.9 253,297.8 	"/>
	<polyline class="st4" points="225.7,120 258.4,220.7 225.7,119.9 225.7,120 	"/>
	<polyline class="st4" points="146.8,297.8 154.8,273.2 146.7,297.9 146.8,297.8 	"/>
	<polyline class="st4" points="225.7,119.9 212.4,160.8 225.7,120 	"/>
	<polyline class="st4" points="235.4,231.5 212.4,160.8 235.4,231.5 258.4,220.7 	"/>
	<polyline class="st4" points="231.9,233.1 210.4,167 210.4,166.9 232,233.1 231.9,233.1 	"/>
	<polyline class="st4" points="231.9,233.1 181.2,256.7 210.4,167 	"/>
	<line class="st4" x1="181.2" y1="256.7" x2="232" y2="233.1"/>
	<polyline class="st4" points="233.1,236.7 154.8,273.2 233.1,236.8 	"/>
	<line class="st4" x1="258.4" y1="220.7" x2="235.4" y2="231.5"/>
	<line class="st4" x1="181.2" y1="256.7" x2="210.4" y2="166.9"/>
	<line class="st4" x1="253" y1="297.8" x2="146.8" y2="297.8"/>
	<line class="st4" x1="253" y1="297.9" x2="146.7" y2="297.9"/>
	<line class="st4" x1="57.9" y1="414.6" x2="362.9" y2="414.6"/>
	<path class="st4" d="M362.9,414.6c29.5,0,53.4-23.9,53.4-53.4"/>
	<line class="st4" x1="416.3" y1="361.3" x2="416.3" y2="56.5"/>
	<path class="st4" d="M416.4,56.5c0-29.5-23.9-53.4-53.4-53.4"/>
	<line class="st4" x1="362.9" y1="3.1" x2="57.9" y2="3.1"/>
	<path class="st4" d="M57.9,3.1C28.4,3.1,4.5,27,4.5,56.5"/>
	<line class="st4" x1="4.5" y1="56.5" x2="4.5" y2="361.3"/>
	<path class="st4" d="M4.5,361.3c0,29.5,23.9,53.4,53.4,53.4"/>
</g>
</svg>
