<?xml version="1.0" encoding="utf-8"?>
<!-- Generator: Adobe Illustrator 22.1.0, SVG Export Plug-In . SVG Version: 6.00 Build 0)  -->
<svg version="1.1" id="Layer_2" xmlns="http://www.w3.org/2000/svg" xmlns:xlink="http://www.w3.org/1999/xlink" x="0px" y="0px"
	 viewBox="0 0 500 500" style="enable-background:new 0 0 500 500;" xml:space="preserve">
<style type="text/css">
	.st0{fill:#7D00CA;stroke:#231F20;stroke-width:2;stroke-linecap:round;stroke-linejoin:round;stroke-miterlimit:10;}
	.st1{fill:#FFFFFF;stroke:#231F20;stroke-width:2;stroke-linejoin:round;stroke-miterlimit:10;}
	.st2{fill:#FFFFFF;}
	.st3{fill:#7D00CA;}
	.st4{fill:#FDB300;}
	.st5{fill:#17A078;}
	.st6{fill:#1DBC94;}
	.st7{fill:#B200FF;}
	.st8{fill:#23D8B6;}
	.st9{fill:#FED941;}
</style>
<g>
	<g id="Layer_2_3_">
		<path class="st0" d="M382.3,186.1c-21.3-36.8-64.7-22.9-64.7-22.9s11.9-35.9-2-57.6C333.7,114.4,372.8,151.7,382.3,186.1z"/>
		<path class="st1" d="M382.3,186.1c0,17.5,0,206.4,0,206.4H162.7V105.5c0,0,133.6,0,152.9,0c13.9,22.3,2,57.6,2,57.6
			S359.8,148.7,382.3,186.1z"/>
	</g>
	<g id="Layer_3_1_">
		<rect x="113.4" y="299.7" class="st0" width="235.6" height="70.8"/>
	</g>
	<g id="Layer_4_1_">
		<g>
			<path class="st2" d="M215.7,355.5c-3.2,1.6-7.1,2.5-11.7,2.5c-6.1,0-10.9-1.9-14.5-5.8c-3.7-3.8-5.5-8.8-5.5-15
				c0-6.7,2.1-12,6.2-16.2s9.3-6.2,15.6-6.2c4.1,0,7.3,0.6,10,1.7v6.9c-2.8-1.7-6-2.5-9.3-2.5c-4.6,0-8.1,1.5-11,4.4
				c-2.8,2.9-4.2,6.8-4.2,11.6c0,4.6,1.3,8.2,4,11c2.7,2.8,6.1,4.1,10.3,4.1c4,0,7.3-0.9,10.2-2.8L215.7,355.5L215.7,355.5z"/>
			<path class="st2" d="M221.8,355.6v-7.2c0.6,0.6,1.4,1.1,2.3,1.6s1.8,0.9,2.8,1.2c1,0.3,2,0.6,3,0.7s1.9,0.3,2.8,0.3
				c2.9,0,5.1-0.5,6.5-1.5c1.4-1,2.2-2.4,2.2-4.2c0-1-0.2-1.9-0.7-2.6c-0.5-0.7-1.1-1.4-2-2c-0.9-0.6-1.9-1.2-3-1.7
				c-1.2-0.6-2.4-1.1-3.7-1.7c-1.4-0.8-2.8-1.5-4-2.3c-1.2-0.8-2.3-1.6-3.2-2.6c-0.9-1-1.6-2-2.1-3.2c-0.5-1.2-0.8-2.6-0.8-4.2
				c0-2,0.4-3.7,1.3-5.1c0.9-1.5,2.1-2.7,3.5-3.6c1.5-0.9,3.1-1.7,5-2.1c1.9-0.5,3.8-0.7,5.7-0.7c4.4,0,7.5,0.5,9.5,1.5v6.9
				c-2.4-1.7-5.4-2.6-9.1-2.6c-1,0-2.1,0.1-3.1,0.3c-1,0.2-1.9,0.5-2.8,1c-0.8,0.4-1.5,1-2,1.7c-0.5,0.7-0.8,1.6-0.8,2.5
				c0,0.9,0.2,1.7,0.6,2.4s1,1.3,1.7,1.9c0.8,0.6,1.7,1.1,2.8,1.7c1.1,0.6,2.3,1.1,3.8,1.7c1.5,0.8,2.8,1.6,4.1,2.4
				c1.3,0.8,2.4,1.8,3.4,2.8c1,1,1.8,2.1,2.3,3.4c0.6,1.2,0.9,2.7,0.9,4.2c0,2.1-0.4,3.9-1.3,5.4c-0.9,1.5-2,2.7-3.5,3.6
				s-3.1,1.6-5,2c-1.9,0.4-3.9,0.6-6,0.6c-0.7,0-1.6-0.1-2.6-0.2c-1-0.1-2.1-0.3-3.1-0.5c-1.1-0.2-2.1-0.5-3-0.7
				C223.1,356.3,222.4,356,221.8,355.6z"/>
			<path class="st2" d="M278.6,321.4H263v12.5h14.4v5.9H263v17.5h-7v-41.7h22.5V321.4z"/>
		</g>
		<g>
			<g>
				<polygon class="st3" points="283.7,134.9 272.8,168.3 291.1,224.3 310.1,215.7 				"/>
				<polygon class="st4" points="270.6,175 248.6,243.2 287.2,226 				"/>
				<polygon class="st5" points="288.5,230.1 224.7,258.4 217.4,281.2 305.1,281.2 				"/>
				<g>
					<polygon class="st6" points="305.1,281.2 236.3,281.2 246.9,248.7 					"/>
					<polygon class="st7" points="283.7,134.9 272.8,168.3 310.1,215.7 					"/>
					<polygon class="st8" points="224.7,258.4 217.4,281.2 236.3,281.2 246.9,248.7 					"/>
					<polygon class="st9" points="248.6,243.2 287.2,226 260.2,207 					"/>
				</g>
			</g>
		</g>
	</g>
</g>
</svg>
