<?xml version="1.0" encoding="utf-8"?>
<!-- Generator: Adobe Illustrator 22.1.0, SVG Export Plug-In . SVG Version: 6.00 Build 0)  -->
<svg version="1.1" id="Layer_3" xmlns="http://www.w3.org/2000/svg" xmlns:xlink="http://www.w3.org/1999/xlink" x="0px" y="0px"
	 viewBox="0 0 500 500" style="enable-background:new 0 0 500 500;" xml:space="preserve">
<style type="text/css">
	.st0{fill:#7D00CA;stroke:#231F20;stroke-width:2;stroke-linecap:round;stroke-linejoin:round;stroke-miterlimit:10;}
	.st1{fill:#FFFFFF;stroke:#231F20;stroke-width:2;stroke-linejoin:round;stroke-miterlimit:10;}
	.st2{fill:#FFFFFF;}
	.st3{fill:#7D00CA;}
	.st4{fill:#FDB300;}
	.st5{fill:#17A078;}
	.st6{fill:#1DBC94;}
	.st7{fill:#B200FF;}
	.st8{fill:#23D8B6;}
	.st9{fill:#FED941;}
</style>
<g>
	<g id="Layer_2_2_">
		<path class="st0" d="M381.3,186.4c-21.1-36.6-64.2-22.8-64.2-22.8s11.8-35.6-2-57.2C333.1,115.3,371.9,152.3,381.3,186.4z"/>
		<path class="st1" d="M381.3,186.4c0,17.4,0,204.9,0,204.9h-218V106.5c0,0,132.6,0,151.8,0c13.8,22.2,2,57.2,2,57.2
			S359,149.4,381.3,186.4z"/>
	</g>
	<g id="Layer_3_3_">
		<rect x="114.4" y="299.2" class="st0" width="233.8" height="70.3"/>
	</g>
	<g id="Layer_4_2_">
		<g>
			<path class="st2" d="M218.8,356.4H212v-26.8c0-2.2,0.1-4.9,0.4-8.1h-0.1c-0.4,1.8-0.8,3.2-1.1,3.9l-12.3,31h-4.8l-12.4-30.8
				c-0.4-0.9-0.7-2.3-1.1-4.1h-0.1c0.2,1.7,0.2,4.3,0.2,8.1v26.7h-6.3v-41.4h9.7l10.8,27.6c0.8,2.1,1.4,3.7,1.6,4.7h0.1
				c0.7-2.2,1.3-3.7,1.8-4.8l11.1-27.5h9.4C218.8,314.9,218.8,356.4,218.8,356.4z"/>
			<path class="st2" d="M263.1,356.4h-7.5l-3.7-10.5h-16.3l-3.5,10.5h-7.5L240,315h7.8L263.1,356.4z M250,340.2l-5.7-16.6
				c-0.2-0.5-0.4-1.4-0.6-2.6h-0.1c-0.2,1.1-0.4,2-0.6,2.6l-5.7,16.6H250z"/>
			<path class="st2" d="M291.1,320.8h-15.5v12.4h14.3v5.8h-14.3v17.4h-6.9V315h22.4V320.8z"/>
		</g>
		<g>
			<g>
				<polygon class="st3" points="283.5,135.7 272.6,168.8 290.8,224.4 309.6,215.9 				"/>
				<polygon class="st4" points="270.5,175.5 248.6,243.1 286.9,226.1 				"/>
				<polygon class="st5" points="288.2,230.2 224.9,258.3 217.6,280.9 304.7,280.9 				"/>
				<g>
					<polygon class="st6" points="304.7,280.9 236.4,280.9 246.9,248.7 					"/>
					<polygon class="st7" points="283.5,135.7 272.6,168.8 309.6,215.9 					"/>
					<polygon class="st8" points="224.9,258.3 217.6,280.9 236.4,280.9 246.9,248.7 					"/>
					<polygon class="st9" points="248.6,243.1 286.9,226.1 260.1,207.2 					"/>
				</g>
			</g>
		</g>
	</g>
</g>
</svg>
