<?xml version="1.0" encoding="utf-8"?>
<!-- Generator: Adobe Illustrator 22.1.0, SVG Export Plug-In . SVG Version: 6.00 Build 0)  -->
<svg version="1.1" id="Layer_2" xmlns="http://www.w3.org/2000/svg" xmlns:xlink="http://www.w3.org/1999/xlink" x="0px" y="0px"
	 viewBox="0 0 500 500" style="enable-background:new 0 0 500 500;" xml:space="preserve">
<style type="text/css">
	.st0{fill:#7D00CA;stroke:#231F20;stroke-width:2;stroke-linecap:round;stroke-linejoin:round;stroke-miterlimit:10;}
	.st1{fill:#FFFFFF;stroke:#231F20;stroke-width:2;stroke-linejoin:round;stroke-miterlimit:10;}
	.st2{fill:#FFFFFF;}
	.st3{fill:#7D00CA;}
	.st4{fill:#FDB300;}
	.st5{fill:#17A078;}
	.st6{fill:#1DBC94;}
	.st7{fill:#B200FF;}
	.st8{fill:#23D8B6;}
	.st9{fill:#FED941;}
</style>
<g>
	<g id="Layer_2_3_">
		<path class="st0" d="M380.3,186.8c-20.9-36.3-63.7-22.6-63.7-22.6s11.7-35.3-2-56.8C332.4,116.2,371,153,380.3,186.8z"/>
		<path class="st1" d="M380.3,186.8c0,17.2,0,203.3,0,203.3H163.9V107.5c0,0,131.6,0,150.7,0c13.7,22,2,56.8,2,56.8
			S358.2,150,380.3,186.8z"/>
	</g>
	<g id="Layer_3_2_">
		<rect x="115.4" y="298.8" class="st0" width="232.1" height="69.8"/>
	</g>
	<g id="Layer_4_1_">
		<g>
			<path class="st2" d="M222.8,355.5H216v-26.6c0-2.2,0.1-4.9,0.4-8h-0.1c-0.4,1.8-0.8,3.1-1.1,3.9L203,355.5h-4.7L185.9,325
				c-0.4-0.9-0.7-2.3-1.1-4.1h-0.1c0.2,1.7,0.2,4.3,0.2,8v26.5h-6.3v-41.1h9.6l10.8,27.4c0.8,2.1,1.4,3.7,1.6,4.7h0.1
				c0.7-2.2,1.3-3.7,1.8-4.8l11.1-27.3h9.3C222.8,314.3,222.8,355.5,222.8,355.5z"/>
			<path class="st2" d="M231.1,353.9v-7c0.6,0.6,1.4,1.1,2.3,1.6c0.9,0.5,1.8,0.9,2.7,1.2c1,0.3,2,0.6,2.9,0.7s1.9,0.3,2.7,0.3
				c2.8,0,5-0.5,6.4-1.5s2.2-2.3,2.2-4.1c0-1-0.2-1.9-0.7-2.5c-0.5-0.7-1.1-1.4-2-2c-0.9-0.6-1.9-1.2-2.9-1.7
				c-1.2-0.6-2.3-1.1-3.6-1.7c-1.4-0.8-2.7-1.5-3.9-2.3c-1.2-0.8-2.3-1.6-3.1-2.5c-0.9-1-1.6-2-2.1-3.1c-0.5-1.2-0.8-2.5-0.8-4.1
				c0-2,0.4-3.6,1.3-5c0.9-1.5,2.1-2.6,3.4-3.5c1.5-0.9,3-1.7,4.9-2.1c1.9-0.5,3.7-0.7,5.6-0.7c4.3,0,7.4,0.5,9.4,1.5v6.8
				c-2.3-1.7-5.3-2.5-9-2.5c-1,0-2.1,0.1-3,0.3s-1.9,0.5-2.7,1c-0.8,0.4-1.5,1-2,1.7s-0.8,1.6-0.8,2.4s0.2,1.7,0.6,2.3
				c0.4,0.7,1,1.3,1.7,1.9c0.8,0.6,1.7,1.1,2.7,1.7c1.1,0.6,2.3,1.1,3.7,1.7c1.5,0.8,2.7,1.6,4,2.3c1.3,0.8,2.3,1.8,3.3,2.7
				s1.8,2.1,2.3,3.3c0.6,1.2,0.9,2.6,0.9,4.1c0,2.1-0.4,3.8-1.3,5.3c-0.9,1.5-2,2.6-3.4,3.5s-3,1.6-4.9,2c-1.9,0.4-3.8,0.6-5.9,0.6
				c-0.7,0-1.6-0.1-2.5-0.2c-1-0.1-2.1-0.3-3-0.5c-1.1-0.2-2.1-0.5-2.9-0.7C232.3,354.6,231.6,354.3,231.1,353.9z"/>
			<path class="st2" d="M287,320.2h-15.4v12.3h14.2v5.8h-14.2v17.2h-6.9v-41.1H287V320.2z"/>
		</g>
		<g>
			<g>
				<polygon class="st3" points="283.2,136.4 272.4,169.3 290.5,224.5 309.1,216.1 				"/>
				<polygon class="st4" points="270.3,176 248.6,243.1 286.6,226.2 				"/>
				<polygon class="st5" points="287.9,230.3 225.1,258.2 217.8,280.6 304.3,280.6 				"/>
				<g>
					<polygon class="st6" points="304.3,280.6 236.4,280.6 246.9,248.6 					"/>
					<polygon class="st7" points="283.2,136.4 272.4,169.3 309.1,216.1 					"/>
					<polygon class="st8" points="225.1,258.2 217.8,280.6 236.4,280.6 246.9,248.6 					"/>
					<polygon class="st9" points="248.6,243.1 286.6,226.2 260,207.5 					"/>
				</g>
			</g>
		</g>
	</g>
</g>
</svg>
